<mxfile host="app.diagrams.net" agent="Mozilla/5.0 (Windows NT 10.0; Win64; x64) AppleWebKit/537.36 (KHTML, like Gecko) Chrome/129.0.0.0 Safari/537.36 Edg/129.0.0.0" version="24.7.17">
  <diagram name="Page-1" id="sN9jX3mGukR6g5K6cpiM">
    <mxGraphModel dx="1658" dy="5468" grid="0" gridSize="10" guides="1" tooltips="1" connect="1" arrows="1" fold="1" page="1" pageScale="1" pageWidth="3300" pageHeight="4681" math="0" shadow="0">
      <root>
        <mxCell id="0" />
        <mxCell id="1" parent="0" />
        <mxCell id="nzk6QbWAMJRpBoNzHcnD-2" value="" style="endArrow=none;dashed=1;html=1;rounded=0;" parent="1" source="nzk6QbWAMJRpBoNzHcnD-3" edge="1">
          <mxGeometry width="50" height="50" relative="1" as="geometry">
            <mxPoint x="219" y="572" as="sourcePoint" />
            <mxPoint x="219" y="-116" as="targetPoint" />
          </mxGeometry>
        </mxCell>
        <mxCell id="nzk6QbWAMJRpBoNzHcnD-4" value="" style="endArrow=none;dashed=1;html=1;rounded=0;" parent="1" target="nzk6QbWAMJRpBoNzHcnD-3" edge="1">
          <mxGeometry width="50" height="50" relative="1" as="geometry">
            <mxPoint x="219" y="572" as="sourcePoint" />
            <mxPoint x="219" y="-116" as="targetPoint" />
          </mxGeometry>
        </mxCell>
        <mxCell id="nzk6QbWAMJRpBoNzHcnD-6" value="Te Rauparaha" style="text;html=1;align=center;verticalAlign=middle;whiteSpace=wrap;rounded=0;fillColor=none;fontFamily=Annie Use Your Telescope;fontSource=https%3A%2F%2Ffonts.googleapis.com%2Fcss%3Ffamily%3DAnnie%2BUse%2BYour%2BTelescope;" parent="1" vertex="1">
          <mxGeometry x="532" y="338" width="93" height="38" as="geometry" />
        </mxCell>
        <mxCell id="nzk6QbWAMJRpBoNzHcnD-9" value="Tamihana Te Rauparaha convinces several iwi to form the Kīngitanga movement, so that a Maori monarch could deal with the Crown on an equal footing" style="text;whiteSpace=wrap;fontFamily=Annie Use Your Telescope;fontSource=https%3A%2F%2Ffonts.googleapis.com%2Fcss%3Ffamily%3DAnnie%2BUse%2BYour%2BTelescope;" parent="1" vertex="1">
          <mxGeometry x="405.02" y="396.19" width="164.98" height="83.81" as="geometry" />
        </mxCell>
        <mxCell id="nzk6QbWAMJRpBoNzHcnD-10" value="Tamihana Te Rauparaha convinces several iwi to form the Kīngitanga movement, so that a Maori monarch could deal with the Crown on an equal footing" style="text;whiteSpace=wrap;fontFamily=Covered By Your Grace;fontSource=https%3A%2F%2Ffonts.googleapis.com%2Fcss%3Ffamily%3DCovered%2BBy%2BYour%2BGrace;" parent="1" vertex="1">
          <mxGeometry x="661" y="376" width="164.98" height="83.81" as="geometry" />
        </mxCell>
        <mxCell id="nzk6QbWAMJRpBoNzHcnD-12" value="Tamihana Te Rauparaha convinces several iwi to form the Kīngitanga movement, so that a Maori monarch could deal with the Crown on an equal footing" style="text;whiteSpace=wrap;fontFamily=Gloria Hallelujah;fontSource=https%3A%2F%2Ffonts.googleapis.com%2Fcss%3Ffamily%3DGloria%2BHallelujah;" parent="1" vertex="1">
          <mxGeometry x="768" y="492" width="172" height="100" as="geometry" />
        </mxCell>
        <mxCell id="0eKrOa33SvdTcUZ5cTTz-2" value="" style="group" vertex="1" connectable="0" parent="1">
          <mxGeometry x="125" y="82" width="99" height="36" as="geometry" />
        </mxCell>
        <mxCell id="nzk6QbWAMJRpBoNzHcnD-3" value="" style="ellipse;whiteSpace=wrap;html=1;" parent="0eKrOa33SvdTcUZ5cTTz-2" vertex="1">
          <mxGeometry x="89" y="13" width="10" height="10" as="geometry" />
        </mxCell>
        <mxCell id="0eKrOa33SvdTcUZ5cTTz-1" value="1860-61" style="text;html=1;align=center;verticalAlign=middle;resizable=0;points=[];autosize=1;strokeColor=none;fillColor=none;fontSize=20;fontFamily=Gloria Hallelujah;fontSource=https%3A%2F%2Ffonts.googleapis.com%2Fcss%3Ffamily%3DGloria%2BHallelujah;" vertex="1" parent="0eKrOa33SvdTcUZ5cTTz-2">
          <mxGeometry width="80" height="36" as="geometry" />
        </mxCell>
        <mxCell id="0eKrOa33SvdTcUZ5cTTz-13" style="edgeStyle=none;curved=1;rounded=0;orthogonalLoop=1;jettySize=auto;html=1;exitX=0;exitY=0.25;exitDx=0;exitDy=0;entryX=1;entryY=0.5;entryDx=0;entryDy=0;fontFamily=Architects Daughter;fontSource=https%3A%2F%2Ffonts.googleapis.com%2Fcss%3Ffamily%3DArchitects%2BDaughter;fontSize=16;endArrow=none;sourcePerimeterSpacing=8;targetPerimeterSpacing=8;endFill=0;" edge="1" parent="1" source="0eKrOa33SvdTcUZ5cTTz-3" target="nzk6QbWAMJRpBoNzHcnD-3">
          <mxGeometry relative="1" as="geometry" />
        </mxCell>
        <mxCell id="0eKrOa33SvdTcUZ5cTTz-3" value="A minor chief of Te Āti Awa offers tribal land to the Crown, against his chief&#39;s wishes&#xa;The Crown forces the issue by occupying the disputed land&#xa;Escalation of hostilities leads to the First Taranaki War, which ends in stalemate" style="text;whiteSpace=wrap;fontFamily=Gloria Hallelujah;fontSource=https%3A%2F%2Ffonts.googleapis.com%2Fcss%3Ffamily%3DGloria%2BHallelujah;" vertex="1" parent="1">
          <mxGeometry x="370" y="73" width="248.49" height="129.57" as="geometry" />
        </mxCell>
        <mxCell id="0eKrOa33SvdTcUZ5cTTz-4" value="" style="edgeStyle=none;orthogonalLoop=1;jettySize=auto;html=1;shape=flexArrow;rounded=1;startSize=8;endSize=8;fontFamily=Architects Daughter;fontSource=https%3A%2F%2Ffonts.googleapis.com%2Fcss%3Ffamily%3DArchitects%2BDaughter;fontSize=16;endArrow=open;sourcePerimeterSpacing=8;targetPerimeterSpacing=8;curved=1;" edge="1" parent="1">
          <mxGeometry width="140" relative="1" as="geometry">
            <mxPoint x="522" y="336" as="sourcePoint" />
            <mxPoint x="662" y="336" as="targetPoint" />
            <Array as="points" />
          </mxGeometry>
        </mxCell>
        <mxCell id="0eKrOa33SvdTcUZ5cTTz-6" value="" style="edgeStyle=none;orthogonalLoop=1;jettySize=auto;html=1;rounded=0;fontFamily=Architects Daughter;fontSource=https%3A%2F%2Ffonts.googleapis.com%2Fcss%3Ffamily%3DArchitects%2BDaughter;fontSize=16;startSize=14;endArrow=open;endSize=14;sourcePerimeterSpacing=8;targetPerimeterSpacing=8;curved=1;" edge="1" parent="1">
          <mxGeometry width="140" relative="1" as="geometry">
            <mxPoint x="522" y="316" as="sourcePoint" />
            <mxPoint x="662" y="316" as="targetPoint" />
            <Array as="points" />
          </mxGeometry>
        </mxCell>
        <mxCell id="0eKrOa33SvdTcUZ5cTTz-7" value="" style="edgeStyle=none;orthogonalLoop=1;jettySize=auto;html=1;rounded=0;fontFamily=Architects Daughter;fontSource=https%3A%2F%2Ffonts.googleapis.com%2Fcss%3Ffamily%3DArchitects%2BDaughter;fontSize=16;startSize=14;endArrow=open;endSize=14;sourcePerimeterSpacing=8;targetPerimeterSpacing=8;curved=1;" edge="1" parent="1">
          <mxGeometry width="140" relative="1" as="geometry">
            <mxPoint x="522" y="316" as="sourcePoint" />
            <mxPoint x="662" y="316" as="targetPoint" />
            <Array as="points" />
          </mxGeometry>
        </mxCell>
        <mxCell id="0eKrOa33SvdTcUZ5cTTz-10" value="" style="edgeStyle=none;orthogonalLoop=1;jettySize=auto;html=1;rounded=0;fontFamily=Architects Daughter;fontSource=https%3A%2F%2Ffonts.googleapis.com%2Fcss%3Ffamily%3DArchitects%2BDaughter;fontSize=16;startSize=14;endArrow=open;endSize=14;sourcePerimeterSpacing=8;targetPerimeterSpacing=8;curved=1;" edge="1" parent="1">
          <mxGeometry width="140" relative="1" as="geometry">
            <mxPoint x="522" y="316" as="sourcePoint" />
            <mxPoint x="662" y="316" as="targetPoint" />
            <Array as="points" />
          </mxGeometry>
        </mxCell>
        <mxCell id="0eKrOa33SvdTcUZ5cTTz-12" value="" style="edgeStyle=none;orthogonalLoop=1;jettySize=auto;html=1;rounded=0;fontFamily=Architects Daughter;fontSource=https%3A%2F%2Ffonts.googleapis.com%2Fcss%3Ffamily%3DArchitects%2BDaughter;fontSize=16;startSize=14;endArrow=open;endSize=14;sourcePerimeterSpacing=8;targetPerimeterSpacing=8;curved=1;" edge="1" parent="1">
          <mxGeometry width="140" relative="1" as="geometry">
            <mxPoint x="522" y="316" as="sourcePoint" />
            <mxPoint x="662" y="316" as="targetPoint" />
            <Array as="points" />
          </mxGeometry>
        </mxCell>
      </root>
    </mxGraphModel>
  </diagram>
</mxfile>
